<svg xmlns="http://www.w3.org/2000/svg" width="12" height="12" viewBox="0 0 12 12" fill="none">
  <path d="M11.5752 3.89807C11.4396 3.57707 11.2722 3.26807 11.0778 2.98067C10.8846 2.69387 10.6632 2.42507 10.4184 2.18087C10.1736 1.93667 9.906 1.71587 9.6192 1.52207C9.33 1.32647 9.021 1.15967 8.7024 1.02467C8.3754 0.886673 8.034 0.780473 7.6884 0.709673C6.9798 0.563873 6.222 0.563273 5.5128 0.709673C5.1654 0.780473 4.8246 0.886673 4.4988 1.02407C4.1802 1.15907 3.8718 1.32587 3.5814 1.52207C3.2952 1.71527 3.0258 1.93727 2.7816 2.18147C2.5374 2.42567 2.3154 2.69507 2.1222 2.98067C1.9266 3.27107 1.7592 3.57947 1.6248 3.89747C1.4868 4.22387 1.3806 4.56527 1.3098 4.91147C1.2372 5.26667 1.2 5.63267 1.2 5.99987C1.2 6.00467 1.2006 6.01007 1.2006 6.01487H0L1.8 8.39987L3.6 6.01487H2.4006C2.4006 6.01007 2.4 6.00467 2.4 5.99987C2.4 5.71367 2.4288 5.42867 2.4852 5.15267C2.5404 4.88327 2.6226 4.61867 2.73 4.36487C2.8344 4.11767 2.9646 3.87707 3.117 3.65207C3.267 3.42947 3.4398 3.22067 3.63 3.02987C3.8202 2.83907 4.0296 2.66687 4.2516 2.51687C4.4772 2.36447 4.7178 2.23427 4.9656 2.12927C5.2182 2.02187 5.4834 1.93967 5.7534 1.88447C6.3048 1.77107 6.8958 1.77167 7.4472 1.88447C7.7154 1.93967 7.9812 2.02187 8.235 2.12927C8.4828 2.23367 8.7228 2.36447 8.9478 2.51567C9.1698 2.66627 9.3798 2.83907 9.57 3.02927C9.7602 3.21887 9.9324 3.42827 10.083 3.65147C10.2342 3.87467 10.3644 4.11467 10.47 4.36487C10.5768 4.61507 10.6584 4.87967 10.7148 5.15147C10.7712 5.42927 10.8 5.71427 10.8 5.99987C10.8 6.28547 10.7712 6.57047 10.7148 6.84587C10.6584 7.11887 10.5768 7.38347 10.47 7.63427C10.3644 7.88387 10.2342 8.12327 10.0824 8.34767C9.9324 8.57027 9.7602 8.77967 9.57 8.96927C9.3798 9.15947 9.1698 9.33228 8.9484 9.48228C8.7228 9.63408 8.4834 9.76488 8.235 9.86988C7.9812 9.97728 7.716 10.0595 7.4472 10.1147C6.8964 10.2275 6.306 10.2281 5.7534 10.1147C5.484 10.0595 5.2194 9.97728 4.9656 9.86988C4.7184 9.76548 4.4778 9.63527 4.2528 9.48287C4.0302 9.33288 3.8214 9.16008 3.6306 8.96988L2.7822 9.81828C3.0264 10.0631 3.2952 10.2845 3.5814 10.4777C3.8712 10.6733 4.1802 10.8407 4.4982 10.9751C4.8246 11.1131 5.166 11.2193 5.5122 11.2901C5.8668 11.3627 6.2328 11.3999 6.6 11.3999C6.9672 11.3999 7.3338 11.3627 7.6878 11.2901C8.034 11.2193 8.3754 11.1137 8.7018 10.9757C9.021 10.8407 9.33 10.6733 9.6204 10.4771C9.906 10.2839 10.1742 10.0625 10.4184 9.81828C10.6626 9.57407 10.884 9.30527 11.0772 9.01968C11.2722 8.73168 11.4396 8.42267 11.5752 8.10227C11.712 7.77947 11.8182 7.43867 11.8902 7.08707C11.9628 6.73187 12 6.36587 12 5.99987C12 5.63387 11.9628 5.26787 11.8902 4.91147C11.8182 4.56107 11.712 4.22027 11.5752 3.89807Z" fill="#888686"/>
</svg>