<svg xmlns="http://www.w3.org/2000/svg" width="15" height="14" viewBox="0 0 15 14" fill="none">
<path d="M10.4328 7.05113L9.02037 8.46357C8.56675 8.32852 7.72027 8.02161 7.18378 7.48512C6.64729 6.94863 6.34038 6.10215 6.20533 5.64853L7.61776 4.2361L4.29447 0.912598L2.19578 3.0115C1.96252 3.24476 1.83116 3.56518 1.83607 3.89235C1.85019 4.76645 2.0816 7.80246 4.47433 10.1952C6.86705 12.5879 9.90306 12.8187 10.7778 12.8334C10.7808 12.8334 10.7919 12.8334 10.795 12.8334C11.1191 12.8334 11.4254 12.7058 11.6574 12.4737L13.7567 10.3744L10.4328 7.05113ZM10.7888 11.6052C10.0228 11.5923 7.40169 11.3866 5.34228 9.32662C3.27612 7.26045 3.07601 4.63018 3.06374 3.87946L4.29447 2.64872L5.88184 4.2361L5.08816 5.02978C4.94145 5.17588 4.87884 5.38703 4.9212 5.5896C4.93593 5.66019 5.29625 7.33411 6.31521 8.35308C7.33417 9.37204 9.0081 9.73236 9.07869 9.74709C9.28309 9.79067 9.49241 9.72745 9.6385 9.58074L10.4328 8.78706L12.0202 10.3744L10.7888 11.6052Z" fill="black"/>
</svg>