<svg xmlns="http://www.w3.org/2000/svg" width="12" height="12" viewBox="0 0 12 12" fill="none">
  <path d="M11.9368 0.685714C11.9768 0.618251 11.9979 0.541276 11.9979 0.462857C11.9979 0.384438 11.9768 0.307463 11.9368 0.24C11.9043 0.174515 11.8559 0.118232 11.796 0.0763038C11.7361 0.0343752 11.6666 0.00814018 11.594 0L0.451131 0C0.371019 0.000817763 0.292673 0.0236356 0.22465 0.0659611C0.156627 0.108287 0.101543 0.168492 0.0654168 0.24C0.0317115 0.311255 0.0179001 0.390298 0.0254446 0.468761C0.0329891 0.547224 0.0616088 0.622187 0.108274 0.685714L4.55685 6.50571C4.67296 6.65533 4.73626 6.83919 4.73685 7.02857V11.5714C4.73727 11.656 4.76273 11.7386 4.81001 11.8088C4.8573 11.879 4.92429 11.9336 5.00256 11.9657C5.05352 11.9894 5.10923 12.0011 5.16542 12C5.22162 12.0007 5.27735 11.9896 5.32902 11.9675C5.38069 11.9453 5.42715 11.9126 5.46542 11.8714L7.1797 10.1571C7.22088 10.1189 7.25359 10.0724 7.27573 10.0207C7.29787 9.96908 7.30896 9.91335 7.30827 9.85714V7.02857C7.30886 6.83919 7.37216 6.65533 7.48827 6.50571L11.9368 0.685714Z" fill="#9E9D9D"/>
</svg>