<svg xmlns="http://www.w3.org/2000/svg" width="15" height="14" viewBox="0 0 15 14" fill="none">
<path d="M7.33333 1.16675C5.07583 1.16675 3.25 2.99258 3.25 5.25008C3.25 8.31258 7.33333 12.8334 7.33333 12.8334C7.33333 12.8334 11.4167 8.31258 11.4167 5.25008C11.4167 2.99258 9.59083 1.16675 7.33333 1.16675ZM4.41667 5.25008C4.41667 3.64008 5.72333 2.33341 7.33333 2.33341C8.94333 2.33341 10.25 3.64008 10.25 5.25008C10.25 6.93008 8.57 9.44425 7.33333 11.0134C6.12 9.45591 4.41667 6.91258 4.41667 5.25008Z" fill="black"/>
<path fill-rule="evenodd" clip-rule="evenodd" d="M7.33333 6.12508C7.81658 6.12508 8.20833 5.73333 8.20833 5.25008C8.20833 4.76683 7.81658 4.37508 7.33333 4.37508C6.85008 4.37508 6.45833 4.76683 6.45833 5.25008C6.45833 5.73333 6.85008 6.12508 7.33333 6.12508ZM7.33333 7.00008C8.29983 7.00008 9.08333 6.21658 9.08333 5.25008C9.08333 4.28358 8.29983 3.50008 7.33333 3.50008C6.36683 3.50008 5.58333 4.28358 5.58333 5.25008C5.58333 6.21658 6.36683 7.00008 7.33333 7.00008Z" fill="black"/>
</svg>